<?xml version="1.0" standalone="no"?>
<!DOCTYPE svg PUBLIC "-//W3C//DTD SVG 20010904//EN"
 "http://www.w3.org/TR/2001/REC-SVG-20010904/DTD/svg10.dtd">
<svg version="1.0" xmlns="http://www.w3.org/2000/svg"
 width="1023.000000pt" height="1023.000000pt" viewBox="0 0 1023.000000 1023.000000"
 preserveAspectRatio="xMidYMid meet">
<metadata>
Created by potrace 1.11, written by Peter Selinger 2001-2013
</metadata>
<g transform="translate(0.000000,1023.000000) scale(0.100000,-0.100000)"
fill="#000000" stroke="none">
<path d="M3451 7463 c-188 -641 -678 -2313 -727 -2478 -36 -121 -83 -283 -105
-360 -23 -77 -72 -243 -109 -370 -38 -126 -121 -410 -185 -630 -119 -407 -208
-708 -250 -848 l-23 -77 440 2 441 3 62 215 c57 193 190 650 264 900 16 52 77
262 136 465 62 211 115 376 124 383 13 11 91 13 399 10 240 -2 387 -7 392 -13
4 -5 15 -37 25 -70 16 -58 160 -549 270 -920 29 -99 71 -243 94 -320 112 -385
190 -648 194 -651 2 -2 200 -3 439 -2 l435 3 -184 625 c-101 344 -230 785
-288 980 -57 195 -101 358 -96 363 4 4 374 6 822 5 755 -3 818 -5 869 -22 258
-85 413 -307 397 -568 -12 -188 -116 -350 -287 -446 -106 -60 -121 -61 -684
-62 -281 -1 -517 -5 -524 -9 -9 -6 -4 -35 22 -122 19 -63 53 -179 76 -259 23
-80 57 -194 75 -255 18 -60 41 -138 50 -173 l18 -63 461 4 c504 4 517 6 712
73 306 105 595 340 760 621 334 564 246 1268 -216 1734 -85 86 -210 181 -308
236 -37 20 -69 38 -71 40 -2 1 12 38 32 80 49 106 84 205 108 310 26 113 37
385 20 504 -82 560 -480 1019 -1018 1174 -186 53 -222 55 -1090 55 -442 0
-803 -3 -803 -7 0 -13 239 -826 250 -850 l10 -23 663 0 c727 0 705 2 829 -61
69 -35 165 -122 208 -189 193 -301 46 -706 -299 -823 -65 -21 -75 -22 -707
-25 l-642 -3 -20 68 c-11 37 -37 124 -57 193 -20 69 -72 244 -115 390 -72 245
-160 546 -323 1105 l-64 220 -441 3 -441 2 -20 -67z m529 -1660 c35 -120 65
-226 68 -235 4 -17 -7 -18 -138 -18 -109 0 -141 3 -138 13 2 6 33 112 69 234
35 123 66 223 70 223 3 0 34 -98 69 -217z"/>
</g>
</svg>
